<!-- Generated by IcoMoon.io -->
<svg version="1.1" xmlns="http://www.w3.org/2000/svg" width="36" height="32" viewBox="0 0 36 32">
<title>extend</title>
<path fill="#000000" d="M10.729 3.294c-1.129 1.788-2.353 2.353-4.706 2.353-3.106 0-3.2 0.094-3.2 3.576 0 2.918 0.471 3.859 2.353 4.894 3.012 1.6 2.824 4.8-0.188 6.118-1.788 0.753-2.165 1.694-2.165 5.365v4.518h4.235c3.106 0 4.235-0.376 4.235-1.412 0-0.659 0.753-1.694 1.6-2.259 1.976-1.035 4.988 0.282 4.988 2.259 0 1.035 1.224 1.412 4.706 1.412h4.706v-3.765c0-3.106 0.282-3.765 1.788-3.765 2.918 0 4.894-2.729 4.612-6.024-0.188-2.259-0.941-3.2-3.294-4.329s-3.106-1.976-3.106-4.047c0-2.259-0.376-2.541-3.294-2.541-1.788 0-3.294-0.376-3.294-0.847 0-1.788-3.012-3.859-5.647-3.859-1.882 0-3.294 0.753-4.329 2.353z"></path>
</svg>
