<!-- Generated by IcoMoon.io -->
<svg version="1.1" xmlns="http://www.w3.org/2000/svg" width="36" height="32" viewBox="0 0 36 32">
<title>jobs</title>
<path fill="#000000" d="M15.341 3.671c-3.765 3.106-2.824 4.8 2.541 4.8 3.671 0 4.706-0.282 4.706-1.506 0-1.318-3.482-4.988-4.706-4.988-0.282 0-1.412 0.753-2.541 1.694z"></path>
<path fill="#000000" d="M5.647 17.882v11.294h24.471v-22.588h-2.729c-2.165 0-2.824 0.471-3.106 2.071-0.282 1.976-0.753 2.165-6.4 2.165s-6.118-0.188-6.4-2.165c-0.282-1.6-0.941-2.071-3.106-2.071h-2.729v11.294zM22.118 19.2c-1.035 0.753-3.012 2.071-4.424 2.918-2.541 1.412-2.635 1.412-4.047-1.318-1.506-3.012-0.753-4.329 2.165-3.482 0.941 0.376 2.541 0 3.576-0.753 1.506-1.224 1.976-1.224 3.2 0 1.129 1.129 1.129 1.506-0.471 2.635z"></path>
</svg>
