<!-- Generated by IcoMoon.io -->
<svg version="1.1" xmlns="http://www.w3.org/2000/svg" width="36" height="32" viewBox="0 0 36 32">
<title>storage</title>
<path fill="#000000" d="M8.659 2.918c-6.118 2.447 4.329 5.553 13.647 4.047 9.882-1.6 6.212-5.176-5.176-4.988-3.482 0-7.341 0.376-8.471 0.941z"></path>
<path fill="#000000" d="M5.647 9.318c0 3.953 2.729 5.176 11.765 5.176s11.765-1.224 11.765-5.176c0-2.635-0.094-2.729-2.071-1.6-2.824 1.506-16.565 1.506-19.294 0-2.071-1.129-2.165-1.035-2.165 1.6z"></path>
<path fill="#000000" d="M5.647 16.847c0 2.541 0.376 2.918 4.047 3.953 4.706 1.224 16.094 0.659 18.071-1.035 0.753-0.659 1.412-2.165 1.412-3.482 0-1.976-0.282-2.165-2.165-1.506-1.129 0.376-5.459 0.753-9.6 0.753s-8.471-0.376-9.6-0.753c-1.976-0.753-2.165-0.471-2.165 2.071z"></path>
<path fill="#000000" d="M5.647 23.529c0 3.671 2.541 4.706 11.765 4.706 8.753 0 11.765-1.224 11.765-4.894 0-2.353-0.188-2.541-1.788-1.694-2.353 1.224-16.094 1.224-19.294 0-2.259-0.847-2.447-0.753-2.447 1.882z"></path>
</svg>
