<!-- Generated by IcoMoon.io -->
<svg version="1.1" xmlns="http://www.w3.org/2000/svg" width="36" height="32" viewBox="0 0 36 32">
<title>structure</title>
<path fill="#000000" d="M4.706 4.235v2.353h26.353v-4.706h-26.353v2.353zM20.706 3.765c0 0.471-0.376 0.941-0.941 0.941-0.471 0-0.941-0.471-0.941-0.941 0-0.565 0.471-0.941 0.941-0.941 0.565 0 0.941 0.376 0.941 0.941zM24.471 3.765c0 0.471-0.376 0.941-0.941 0.941-0.471 0-0.941-0.471-0.941-0.941 0-0.565 0.471-0.941 0.941-0.941 0.565 0 0.941 0.376 0.941 0.941zM28.235 3.765c0 0.471-0.376 0.941-0.941 0.941-0.471 0-0.941-0.471-0.941-0.941 0-0.565 0.471-0.941 0.941-0.941 0.565 0 0.941 0.376 0.941 0.941z"></path>
<path fill="#000000" d="M4.706 19.294v10.824h26.353v-21.647h-26.353v10.824zM28.235 15.059v3.765h-20.706v-7.529h20.706v3.765zM24.471 22.588c0 0.565-3.482 0.941-8.471 0.941s-8.471-0.376-8.471-0.941c0-0.565 3.482-0.941 8.471-0.941s8.471 0.376 8.471 0.941zM17.882 26.353c0 0.471-2.353 0.941-5.176 0.941s-5.176-0.471-5.176-0.941c0-0.565 2.353-0.941 5.176-0.941s5.176 0.376 5.176 0.941z"></path>
</svg>
