<!-- Generated by IcoMoon.io -->
<svg version="1.1" xmlns="http://www.w3.org/2000/svg" width="36" height="32" viewBox="0 0 36 32">
<title>tripal-000000</title>
<path fill="#000000" d="M14.588 1.788c-6.965 1.694-12.706 6.871-14.118 12.518l-0.659 2.635h8.753l8.847-0.094 5.835-7.906 5.835-8-5.835 0.094c-3.2 0.094-7.059 0.376-8.659 0.753z"></path>
<path fill="#000000" d="M24.094 9.976l-5.271 7.247 2.071 3.388c1.129 1.882 2.729 4.706 3.671 6.4l1.506 3.012 3.859-3.482c6.682-6.212 7.341-14.4 1.694-21.176l-2.165-2.729-5.365 7.341z"></path>
<path fill="#000000" d="M4.047 18.541c-4.518 0.471-4.706 0.941-2.541 5.553 2.353 4.988 7.153 7.435 14.682 7.435 3.482 0 6.776-0.471 7.247-0.941 0.659-0.659-0.188-2.918-2.541-6.871l-3.388-5.835-4.8 0.188c-2.541 0.094-6.494 0.282-8.659 0.471z"></path>
</svg>
