<!-- Generated by IcoMoon.io -->
<svg version="1.1" xmlns="http://www.w3.org/2000/svg" width="36" height="32" viewBox="0 0 36 32">
<title>extend</title>
<path fill="#787878" d="M11.859 2.447c-0.847 0.753-1.506 2.071-1.506 2.824 0 0.941-1.129 1.318-3.765 1.318-3.765 0-3.765 0-3.765 3.576 0 2.918 0.471 3.859 2.353 4.894 3.012 1.6 2.824 4.8-0.282 6.118-1.694 0.753-2.071 1.694-2.071 5.365v4.518h4.235c3.106 0 4.235-0.376 4.235-1.412 0-0.659 0.753-1.694 1.6-2.259 1.976-1.035 4.988 0.282 4.988 2.259 0 1.035 1.224 1.412 4.706 1.412h4.706v-3.765c0-3.012 0.376-3.765 1.694-3.765 2.353 0 3.953-1.882 3.953-4.706s-1.6-4.706-3.953-4.706c-1.318 0-1.694-0.753-1.694-3.765 0-3.671-0.094-3.765-3.294-3.765-2.259 0-3.294-0.471-3.294-1.318 0-2.071-2.729-4.329-5.176-4.329-1.224 0-2.918 0.659-3.671 1.506z"></path>
</svg>
