<!-- Generated by IcoMoon.io -->
<svg version="1.1" xmlns="http://www.w3.org/2000/svg" width="36" height="32" viewBox="0 0 36 32">
<title>loader</title>
<path fill="#787878" d="M15.529 6.212c-4.141 2.824-7.624 5.553-7.812 5.929-0.188 0.471 0.659 1.035 1.882 1.318 1.976 0.565 2.165 1.035 1.882 4.894-0.471 5.459 1.224 9.6 4.612 11.294l2.635 1.412 1.976-5.459c1.035-2.918 2.165-5.929 2.353-6.588 0.376-0.847 1.318-1.129 3.294-0.659l2.729 0.565-2.635-7.812c-1.412-4.329-2.824-8.282-3.012-8.941-0.188-0.753-3.2 0.847-7.906 4.047z"></path>
</svg>
