<!-- Generated by IcoMoon.io -->
<svg version="1.1" xmlns="http://www.w3.org/2000/svg" width="36" height="32" viewBox="0 0 36 32">
<title>more</title>
<path fill="#787878" d="M2.824 16v14.118h30.118v-28.235h-30.118v14.118zM12.047 16.847c-0.188 0.847-1.035 1.6-1.976 1.788-1.976 0.376-3.294-2.541-1.6-3.576 1.788-1.129 3.953 0 3.576 1.788zM19.482 15.153c1.412 1.412 0.471 3.671-1.6 3.671s-3.012-2.259-1.6-3.671c0.565-0.565 1.318-1.035 1.6-1.035s1.035 0.471 1.6 1.035zM28.047 16.847c-0.188 0.847-1.035 1.6-1.976 1.788-1.976 0.376-3.294-2.541-1.6-3.576 1.788-1.129 3.953 0 3.576 1.788z"></path>
</svg>
