<!-- Generated by IcoMoon.io -->
<svg version="1.1" xmlns="http://www.w3.org/2000/svg" width="36" height="32" viewBox="0 0 36 32">
<title>vocab-00</title>
<path fill="#787878" d="M4.706 15.059c0 11.953 0.188 13.176 1.788 14.118 1.035 0.471 6.776 0.941 12.706 0.941h10.918v-25.412l-11.482-0.188c-10.824-0.188-11.012-0.188-2.824-0.471 11.953-0.471 11.106-2.165-1.224-2.165h-9.882v13.176zM16.847 16.565c1.976 5.365 1.976 7.341-0.094 5.271-1.412-1.412-5.459-1.506-5.459-0.188 0 0.471-0.659 0.941-1.412 0.941-1.129 0-1.035-0.847 0.565-4.894 3.2-8.282 3.576-8.282 6.4-1.129zM24.847 14.682c1.035 0.376 1.506 1.788 1.506 4.141 0 3.294-0.188 3.482-3.012 3.576-1.694 0-3.388-0.376-3.765-1.035-0.753-1.318 0.847-3.482 2.635-3.482 0.659 0 1.506-0.471 1.882-1.035 0.471-0.847-0.094-0.941-1.882-0.471-2.447 0.565-3.482-0.753-1.224-1.6 1.694-0.753 2.165-0.753 3.859-0.094z"></path>
<path fill="#787878" d="M12.8 16.471c-0.282 0.847 0 1.412 0.847 1.412s1.129-0.565 0.847-1.412c-0.376-0.753-0.659-1.412-0.847-1.412s-0.471 0.659-0.847 1.412z"></path>
<path fill="#787878" d="M22.118 19.765c-0.282 0.471 0.094 0.941 0.847 0.941 0.847 0 1.506-0.471 1.506-0.941 0-0.565-0.376-0.941-0.847-0.941-0.565 0-1.224 0.376-1.506 0.941z"></path>
</svg>
